<?xml version="1.0" encoding="UTF-8"?>
<svg xmlns="http://www.w3.org/2000/svg" xmlns:xlink="http://www.w3.org/1999/xlink" width="60px" height="60px" viewBox="0 0 60 60" version="1.1">
<defs>
<linearGradient id="linear0" gradientUnits="userSpaceOnUse" x1="0.5" y1="0" x2="0.5" y2="1" gradientTransform="matrix(59.011719,0,0,59.078125,0.488281,0.460938)">
<stop offset="0" style="stop-color:rgb(6.666667%,11.372549%,18.039216%);stop-opacity:1;"/>
<stop offset="0.212" style="stop-color:rgb(1.960784%,9.411765%,22.352941%);stop-opacity:1;"/>
<stop offset="0.407" style="stop-color:rgb(3.921569%,10.588235%,28.235294%);stop-opacity:1;"/>
<stop offset="0.581" style="stop-color:rgb(7.45098%,18.039216%,38.431373%);stop-opacity:1;"/>
<stop offset="0.738" style="stop-color:rgb(7.843137%,29.411765%,49.411765%);stop-opacity:1;"/>
<stop offset="0.873" style="stop-color:rgb(7.45098%,39.215686%,59.215686%);stop-opacity:1;"/>
<stop offset="1" style="stop-color:rgb(7.45098%,52.941176%,72.156863%);stop-opacity:1;"/>
</linearGradient>
</defs>
<g id="surface1">
<path style=" stroke:none;fill-rule:nonzero;fill:url(#linear0);" d="M 1.667969 38.496094 C 5.316406 50.664062 16.605469 59.539062 29.960938 59.539062 C 46.277344 59.539062 59.5 46.3125 59.5 30 C 59.5 13.6875 46.277344 0.460938 29.960938 0.460938 C 14.308594 0.460938 1.5 12.640625 0.488281 28.039062 C 2.402344 31.246094 3.144531 33.234375 1.664062 38.496094 Z M 1.667969 38.496094 "/>
<path style=" stroke:none;fill-rule:nonzero;fill:rgb(100%,100%,100%);fill-opacity:1;" d="M 28.441406 22.601562 L 28.441406 22.746094 L 21.214844 33.246094 C 20.042969 33.195312 18.871094 33.398438 17.753906 33.859375 C 17.269531 34.054688 16.804688 34.304688 16.371094 34.597656 L 0.5 28.054688 C 0.5 28.054688 0.132812 34.097656 1.664062 38.601562 L 12.882812 43.230469 C 13.4375 45.75 15.171875 47.957031 17.722656 49.019531 C 21.898438 50.753906 26.691406 48.777344 28.433594 44.605469 C 28.878906 43.535156 29.09375 42.386719 29.066406 41.230469 L 39.398438 33.839844 L 39.652344 33.84375 C 45.839844 33.84375 50.871094 28.800781 50.871094 22.601562 C 50.871094 16.402344 45.847656 11.375 39.652344 11.363281 C 33.464844 11.363281 28.429688 16.402344 28.429688 22.601562 Z M 26.703125 43.878906 C 25.363281 47.109375 21.660156 48.628906 18.441406 47.289062 C 17.011719 46.6875 15.855469 45.582031 15.1875 44.183594 L 18.839844 45.699219 C 21.214844 46.6875 23.9375 45.5625 24.925781 43.1875 C 25.914062 40.8125 24.792969 38.085938 22.417969 37.09375 L 18.632812 35.53125 C 20.089844 34.976562 21.746094 34.957031 23.292969 35.601562 C 24.863281 36.25 26.0625 37.472656 26.707031 39.035156 C 27.347656 40.597656 27.34375 42.320312 26.695312 43.878906 M 39.660156 30.09375 C 35.53125 30.082031 32.1875 26.734375 32.1875 22.601562 C 32.191406 18.476562 35.53125 15.128906 39.660156 15.117188 C 43.789062 15.125 47.132812 18.472656 47.136719 22.601562 C 47.132812 26.734375 43.789062 30.082031 39.660156 30.09375 M 34.058594 22.589844 C 34.058594 19.488281 36.570312 16.96875 39.671875 16.964844 C 42.769531 16.964844 45.289062 19.484375 45.289062 22.589844 C 45.289062 25.695312 42.777344 28.210938 39.671875 28.214844 C 36.570312 28.210938 34.058594 25.695312 34.058594 22.589844 Z M 34.058594 22.589844 "/>
</g>
</svg>
